<?xml version="1.0" standalone="no"?>
<!DOCTYPE svg PUBLIC "-//W3C//DTD SVG 20010904//EN"
 "http://www.w3.org/TR/2001/REC-SVG-20010904/DTD/svg10.dtd">
<svg version="1.0" xmlns="http://www.w3.org/2000/svg"
 width="300.000000pt" height="300.000000pt" viewBox="0 0 300.000000 300.000000"
 preserveAspectRatio="xMidYMid meet">
<metadata>
Created by potrace 1.14, written by Peter Selinger 2001-2017
</metadata>
<g transform="translate(0.000000,300.000000) scale(0.100000,-0.100000)"
fill="#000000" stroke="none">
<path d="M1309 2769 c-107 -77 -205 -149 -219 -159 -14 -10 -252 -184 -530
-386 -354 -257 -504 -371 -502 -383 3 -16 33 -111 145 -456 114 -350 288 -888
309 -955 11 -36 24 -74 29 -85 4 -11 20 -59 35 -107 l28 -88 898 0 897 0 63
193 c34 105 63 194 63 197 1 3 4 12 8 20 6 16 149 459 153 475 2 6 23 71 47
145 158 478 218 673 210 680 -4 4 -316 232 -693 506 -377 273 -699 507 -716
520 l-30 24 -195 -141z"/>
</g>
</svg>
